<?xml version="1.0" standalone="no"?>
<!DOCTYPE svg PUBLIC "-//W3C//DTD SVG 20010904//EN"
 "http://www.w3.org/TR/2001/REC-SVG-20010904/DTD/svg10.dtd">
<svg version="1.0" xmlns="http://www.w3.org/2000/svg"
 width="260.000000pt" height="260.000000pt" viewBox="0 0 260.000000 260.000000"
 preserveAspectRatio="xMidYMid meet">
<metadata>
Created by potrace 1.11, written by Peter Selinger 2001-2013
</metadata>
<g transform="translate(0.000000,260.000000) scale(0.100000,-0.100000)"
fill="#000000" stroke="none">
<path d="M1043 2575 c-132 -24 -293 -81 -383 -136 -172 -104 -295 -214 -380
-339 -38 -56 -45 -74 -48 -125 -6 -90 21 -183 97 -340 69 -143 108 -201 145
-214 19 -7 20 -15 17 -92 -2 -67 5 -117 34 -249 44 -200 45 -274 3 -337 -26
-39 -45 -51 -156 -98 -65 -28 -70 -45 -33 -118 61 -123 190 -253 321 -321 36
-19 144 -70 240 -114 l175 -79 105 14 c207 26 284 52 296 98 3 14 -4 56 -19
102 -41 127 -42 139 -13 166 39 36 99 50 256 56 80 4 154 12 166 18 27 15 54
56 54 82 0 58 24 125 58 163 33 36 35 42 25 69 -10 26 -9 31 7 42 16 9 18 19
14 49 -4 20 -4 48 0 62 10 40 60 90 115 116 35 16 53 31 57 47 9 33 -11 132
-56 290 -22 76 -40 145 -40 154 0 12 13 18 49 23 116 15 291 147 307 231 5 30
2 47 -12 74 -25 46 -163 150 -300 226 -77 43 -129 80 -180 131 -149 146 -316
267 -431 310 -136 52 -333 68 -490 39z m423 -920 c180 -56 311 -83 442 -91 71
-5 102 -11 102 -20 0 -6 20 -82 45 -168 25 -86 48 -176 51 -200 6 -42 5 -45
-25 -60 -82 -43 -141 -124 -141 -194 0 -27 -7 -45 -21 -58 -17 -15 -20 -26
-15 -56 5 -29 1 -45 -18 -73 -14 -20 -30 -62 -36 -93 -6 -31 -13 -66 -15 -78
-4 -20 -13 -21 -137 -27 -150 -7 -230 -25 -289 -64 -73 -48 -85 -108 -48 -228
11 -37 23 -73 26 -81 6 -17 -49 -32 -190 -49 l-112 -14 -190 87 c-217 100
-280 137 -358 216 -60 59 -129 155 -122 167 3 4 17 10 32 14 72 17 153 92 184
170 21 53 14 180 -19 325 -17 74 -33 156 -37 183 -10 64 2 137 23 144 9 3 69
29 132 58 287 131 541 234 578 235 8 0 79 -20 158 -45z"/>
</g>
</svg>
